<svg t="1741252551881" class="icon" viewBox="0 0 1024 1024" version="1.1" xmlns="http://www.w3.org/2000/svg" p-id="5508" width="200" height="200"><path d="M511.7952 78.0288c251.17696 0 453.20192 202.87488 453.20192 454.47168 0 249.07776-204.55424 454.0416-457.41056 451.9424-243.6096-2.0992-449.42336-204.1344-448.58368-453.20192C59.42272 280.48384 261.45792 78.0288 511.7952 78.0288zM167.79264 768.55296c0 4.1984 2.0992 7.55712 4.61824 10.91584 18.06336 25.20064 38.22592 49.14176 62.16704 68.88448 10.91584 9.23648 21.00224 18.90304 33.1776 26.88 33.1776 21.42208 67.20512 41.1648 105.0112 54.59968 30.65856 10.91584 62.16704 19.32288 94.50496 22.26176 24.7808 2.51904 50.40128 3.77856 75.60192 0.41984 14.70464-2.0992 30.23872-1.67936 44.10368-8.3968 2.0992 1.67936 3.35872-0.83968 5.45792-1.25952 29.81888-5.03808 58.38848-14.2848 86.10816-26.46016 92.40576-40.74496 162.12992-105.85088 207.49312-195.72736 39.90528-78.96064 53.34016-162.9696 40.32512-251.17696-12.60544-83.58912-47.04256-157.09184-103.74144-219.24864-77.28128-84.4288-173.88544-130.21184-288.13312-137.34912-51.24096-3.35872-101.64224 3.77856-150.784 19.74272-78.96064 26.04032-144.90624 70.98368-197.40672 135.66976-60.06784 74.3424-89.88672 159.61088-93.24544 254.53568-0.83968 23.10144 1.25952 46.62272 4.61824 69.72416 7.55712 52.92032 25.20064 103.74144 52.50048 149.94432 5.0176 8.81664 9.63584 18.47296 17.62304 26.04032z" fill="#8CC63F" p-id="5509"></path><path d="M586.83392 943.69792c-13.86496 6.71744-29.39904 6.71744-44.10368 8.81664-25.20064 3.35872-50.40128 2.0992-75.60192 0-32.33792-2.93888-63.8464-11.33568-94.50496-22.26176-37.80608-13.44512-71.82336-32.75776-105.0112-54.59968-11.76576-7.97696-22.26176-17.64352-33.1776-26.88-23.94112-19.74272-44.10368-43.68384-62.16704-68.88448-2.51904-3.35872-4.61824-6.71744-4.61824-10.91584 28.9792-63.8464 39.0656-131.8912 45.3632-200.77568 2.93888-31.91808 4.1984-63.8464 9.23648-95.34464 5.87776-36.9664 19.74272-70.56384 46.20288-97.86368 23.94112-24.7808 53.34016-41.1648 85.26848-53.76 26.46016-10.496 53.34016-20.16256 82.3296-21.42208 26.88-1.25952 52.92032 2.93888 78.96064 7.55712 39.48544 9.65632 78.5408 21.42208 115.08736 39.48544 29.81888 12.1856 60.06784 24.36096 91.14624 33.1776 32.33792 9.23648 63.8464 19.74272 91.56608 40.32512 34.43712 26.04032 44.10368 59.648 27.71968 99.54304-10.07616 24.36096-27.29984 44.10368-45.3632 62.58688-32.33792 32.75776-66.78528 63.42656-97.024 98.28352-35.28704 41.1648-67.62496 84.00896-89.88672 133.9904-18.06336 41.1648-28.55936 83.57888-21.42208 128.94208z m228.9152-390.61504c-1.25952 0-2.93888 0.41984-3.35872 1.67936-1.25952 0.41984-2.93888 0.83968-2.93888 2.51904l0.41984 0.41984c1.67936 0 2.51904-0.83968 2.93888-2.51904l2.93888-2.0992c0.83968 0 2.0992 0 0.83968-1.25952 0 0.41984-0.83968 1.25952-0.83968 1.25952z m-362.9056-206.2336c-44.94336 0-81.05984 36.12672-81.05984 81.05984 0 44.94336 36.12672 81.05984 81.05984 81.47968 44.94336 0 81.05984-36.54656 81.05984-81.05984 0.01024-44.94336-36.11648-81.47968-81.05984-81.47968z m66.36544 249.9072c6.71744 10.07616 20.5824 19.74272 35.70688 25.20064 30.65856 10.91584 61.7472 10.91584 92.8256 5.03808 54.17984-10.07616 105.0112-29.81888 151.21408-60.06784 2.93888-1.67936 6.71744-2.93888 7.55712-7.13728-2.0992-1.25952-3.35872 0-4.61824 0.83968-15.54432 9.23648-31.91808 17.22368-48.30208 23.94112-43.264 18.06336-88.20736 29.81888-135.24992 31.49824-34.02752 1.6896-68.0448-0.82944-99.13344-19.31264z m223.87712-70.144c9.65632-0.41984 17.64352-8.81664 17.22368-18.4832-0.41984-9.65632-8.81664-17.64352-18.4832-17.22368-9.65632 0.41984-16.80384 8.3968-16.80384 18.06336 0.41984 10.0864 8.40704 17.64352 18.06336 17.64352z" fill="#8CC63F" p-id="5510"></path><path d="M514.73408 307.36384c-26.04032-4.61824-52.08064-8.81664-78.96064-7.55712-28.9792 1.25952-55.8592 10.91584-82.3296 21.42208-31.91808 12.1856-60.90752 28.9792-85.26848 53.76-26.46016 27.29984-40.32512 60.90752-46.20288 97.86368-5.03808 31.49824-6.2976 63.8464-9.23648 95.34464-6.2976 68.88448-16.384 136.92928-45.3632 200.77568-7.97696-7.55712-12.60544-17.22368-18.06336-26.46016-27.29984-46.20288-44.94336-97.024-52.50048-149.94432-3.35872-23.10144-5.45792-46.20288-4.61824-69.72416 3.35872-94.9248 33.1776-180.19328 93.24544-254.53568 52.50048-64.68608 118.44608-110.04928 197.40672-135.66976 49.14176-15.96416 99.54304-22.6816 150.784-19.74272 114.24768 7.13728 210.85184 52.92032 288.13312 137.34912 56.69888 62.16704 91.14624 135.66976 103.74144 219.24864 13.02528 88.20736-0.41984 171.78624-40.32512 251.17696-45.78304 89.88672-115.5072 154.99264-207.49312 195.72736-27.71968 12.1856-56.27904 21.42208-86.10816 26.46016-1.67936 0.41984-2.93888 2.93888-5.45792 1.25952-7.13728-45.3632 3.35872-88.20736 21.42208-128.95232 21.84192-49.98144 54.17984-92.8256 89.88672-133.9904 30.23872-34.85696 64.68608-65.9456 97.024-98.28352 18.4832-18.4832 35.70688-37.80608 45.78304-62.58688 16.384-39.90528 6.71744-73.50272-27.71968-99.54304-27.29984-20.5824-59.22816-31.0784-91.56608-40.32512-31.0784-9.23648-61.32736-21.00224-91.14624-33.1776-6.2976-20.16256-20.16256-33.1776-39.48544-39.90528-24.76032-9.64608-50.3808-7.54688-75.58144 0.01024z m387.67616 252.01664h2.0992c4.61824-16.80384 4.61824-34.43712 4.61824-51.6608 0-20.16256-2.0992-40.74496-6.2976-60.48768-13.02528-65.52576-42.84416-122.22464-88.6272-170.52672-28.13952-29.39904-60.48768-54.59968-91.98592-80.22016-28.13952-23.10144-58.80832-42.00448-94.50496-51.24096-34.01728-8.81664-68.0448-13.44512-102.48192-6.71744-1.67936 0.41984-5.03808-0.41984-4.61824 2.51904 0 2.0992 2.93888 2.51904 5.03808 2.93888 52.08064 8.81664 101.64224 26.04032 151.20384 45.3632 47.88224 18.4832 87.78752 46.62272 116.76672 89.04704 20.5824 29.81888 39.48544 60.48768 54.17984 93.66528 19.74272 44.94336 35.70688 91.14624 45.3632 139.02848 2.94912 15.94368 5.888 31.90784 9.24672 48.29184z" fill="#F9E887" p-id="5511"></path><path d="M452.56704 346.84928c44.52352 0 81.05984 36.12672 81.05984 81.05984v0.41984c0 44.94336-36.54656 81.05984-81.05984 81.05984-44.94336 0-81.05984-36.54656-81.05984-81.47968-0.41984-44.52352 36.11648-81.05984 81.05984-81.05984z m56.70912 81.89952c0-31.49824-25.62048-57.11872-56.69888-57.11872-31.49824 0-57.11872 25.62048-57.11872 56.69888-0.41984 31.0784 24.7808 56.69888 55.8592 57.11872h0.83968c31.0784 0.41984 56.69888-24.7808 57.11872-55.8592v-0.83968z" fill="#F8FBF7" p-id="5512"></path><path d="M518.93248 596.75648c31.0784 18.4832 65.10592 21.00224 99.54304 19.74272 47.04256-2.0992 91.98592-13.44512 135.24992-31.49824 16.80384-7.13728 32.75776-14.70464 48.30208-23.94112 1.25952-0.83968 2.51904-1.67936 4.61824-0.83968-0.83968 4.1984-5.03808 5.03808-7.55712 7.13728-46.20288 30.23872-97.024 49.98144-151.20384 60.06784-31.49824 5.87776-62.58688 5.87776-92.8256-5.03808-15.54432-5.888-29.82912-15.54432-36.12672-25.63072z m-4.1984-289.39264c25.20064-7.55712 50.40128-9.65632 75.60192-0.41984 19.32288 7.13728 33.1776 19.74272 39.48544 39.90528-36.54656-18.4832-75.19232-30.24896-115.08736-39.48544z" fill="#767D8F" p-id="5513"></path><path d="M742.8096 526.61248c-9.65632 0-17.64352-7.97696-18.06336-17.64352 0-9.65632 7.55712-17.22368 16.80384-17.64352 9.65632-0.41984 18.06336 7.13728 18.4832 17.22368 0.4096 9.66656-7.56736 17.64352-17.22368 18.06336z" fill="#F8FBF7" p-id="5514"></path><path d="M812.53376 555.60192c-0.41984 1.25952-1.25952 2.51904-2.93888 2.51904-0.41984 0-0.41984-0.41984-0.41984-0.41984 0-1.67936 1.25952-2.0992 2.93888-2.51904l0.41984 0.41984z m2.93888-2.0992l-3.35872 2.0992-0.83968-0.83968c1.25952-1.25952 2.51904-1.67936 4.1984-1.25952zM815.47264 553.08288l0.83968-1.25952c0.83968 1.25952-0.41984 1.25952-0.83968 1.25952z" fill="#9DA3B6" p-id="5515"></path><path d="M902.41024 559.38048c-3.35872-15.96416-6.71744-32.33792-9.65632-48.30208-9.65632-48.30208-25.62048-94.08512-45.3632-139.02848-14.70464-33.1776-33.59744-63.8464-54.17984-93.66528-29.39904-42.42432-68.88448-70.56384-116.76672-89.04704-49.14176-19.32288-98.70336-36.12672-150.784-45.3632-2.0992-0.41984-4.61824-0.41984-5.03808-2.93888 0-2.93888 2.93888-2.0992 4.61824-2.51904 34.85696-6.2976 68.88448-2.0992 102.48192 6.71744 35.70688 9.23648 66.36544 27.71968 94.50496 51.24096 31.49824 26.04032 63.8464 50.82112 91.98592 80.22016 45.78304 48.30208 75.60192 105.0112 88.6272 170.52672 4.1984 20.16256 5.87776 40.32512 6.2976 60.48768 0 17.22368 0 34.85696-4.61824 51.6608h-2.10944z" fill="#FFFCF9" p-id="5516"></path><path d="M509.27616 428.7488c0.41984 31.0784-24.7808 56.69888-55.8592 57.11872h-1.25952c-31.0784 0-56.69888-25.20064-57.11872-56.27904v-0.83968c0-31.49824 25.62048-57.11872 57.11872-56.69888 31.90784-0.41984 57.11872 25.20064 57.11872 56.69888z" fill="#767D8F" p-id="5517"></path></svg>