<svg t="1741250471020" class="icon" viewBox="0 0 1024 1024" version="1.1" xmlns="http://www.w3.org/2000/svg" p-id="3039" width="200" height="200"><path d="M877.2608 611.8912c-17.92 11.264-38.912 12.6976-54.8864 3.6864-20.3264-11.4688-31.488-38.2976-31.488-75.6736V428.1856c0-53.9136-21.2992-92.3136-56.9856-102.656-60.416-17.6128-105.8816 56.32-122.9824 84.0704L504.32 582.4512V371.2c-1.1776-48.5888-16.9472-77.6704-46.9504-86.4256-19.8144-5.7856-49.5104-3.4816-78.336 40.6528l-238.7968 383.488A421.3248 421.3248 0 0 1 91.6992 512c0-231.0144 185.088-418.9184 412.672-418.9184 227.4816 0 412.5696 187.904 412.5696 418.9184 0 0.4096 0.1024 0.768 0.1536 1.1264 0 0.4096-0.1024 0.768-0.0512 1.1264 2.1504 44.7488-12.3392 80.384-39.7824 97.6896z m131.3792-99.84v-2.3552C1007.36 228.352 781.6192 0 504.32 0 226.2528 0 0 229.6832 0 512s226.2528 512 504.32 512c127.5904 0 249.3952-48.4864 342.8864-136.5504a47.0016 47.0016 0 0 0 2.4576-65.7408 45.3632 45.3632 0 0 0-64.8192-2.5088 407.8592 407.8592 0 0 1-280.5248 111.7184c-121.856 0-231.424-53.9136-307.0464-139.4176L412.672 445.6448v159.4368c0 76.5952 29.696 101.376 54.5792 108.544 24.9344 7.2704 62.976 2.304 103.0144-62.6176l118.4256-192a348.16 348.16 0 0 1 10.496-16.1792v97.0752c0 71.5776 28.672 128.8192 78.6432 157.0304 45.056 25.4464 101.7344 23.1424 147.8656-5.9904 55.9616-35.328 86.0672-100.4544 82.944-178.944z" fill="#fff" p-id="3040"></path></svg>